<?xml version="1.0" encoding="UTF-8" standalone="no"?>
<!-- Created with Inkscape (http://www.inkscape.org/) -->

<svg
   width="59.026592mm"
   height="54.903854mm"
   viewBox="0 0 188.8851 175.69233"
   version="1.1"
   id="svg4924"
   inkscape:version="1.1.1 (3bf5ae0d25, 2021-09-20)"
   sodipodi:docname="combined instruments with circle thicker outline.svg"
   inkscape:export-filename="C:\Users\April\hackreactor\combined instruments with circle.png"
   inkscape:export-xdpi="96"
   inkscape:export-ydpi="96"
   xmlns:inkscape="http://www.inkscape.org/namespaces/inkscape"
   xmlns:sodipodi="http://sodipodi.sourceforge.net/DTD/sodipodi-0.dtd"
   xmlns="http://www.w3.org/2000/svg"
   xmlns:svg="http://www.w3.org/2000/svg">
  <sodipodi:namedview
     id="namedview4926"
     pagecolor="#d9d9d9"
     bordercolor="#666666"
     borderopacity="1.0"
     inkscape:pageshadow="2"
     inkscape:pageopacity="0"
     inkscape:pagecheckerboard="0"
     inkscape:document-units="mm"
     showgrid="false"
     inkscape:snap-global="false"
     inkscape:zoom="2.1215981"
     inkscape:cx="79.892606"
     inkscape:cy="130.32629"
     inkscape:window-width="1920"
     inkscape:window-height="1027"
     inkscape:window-x="-8"
     inkscape:window-y="-8"
     inkscape:window-maximized="1"
     inkscape:current-layer="layer2"
     scale-x="3.2">
    <inkscape:grid
       type="xygrid"
       id="grid7049"
       originx="-16.924829"
       originy="-2.1309807" />
  </sodipodi:namedview>
  <defs
     id="defs4921">
    <inkscape:path-effect
       effect="fill_between_many"
       method="originald"
       linkedpaths="#path3406,0,1|#path3404,0,1|#path3465,0,1|#path3402,0,1|#path3400,0,1|#path3398,0,1|#path3396,0,1|#path3394,0,1|#path3392,0,1|#path3390,0,1|#path3388,0,1|#path3386,0,1|#path3384,0,1|#path3382,0,1|#path3380,0,1|#path3378,0,1|#path3376,0,1|#path3374,0,1|#path3372,0,1|#path3370,0,1|#path3368,0,1|#path3366,0,1|#path3364,0,1|#path3362,0,1|#path3360,0,1|#path3358,0,1|#path3356,0,1|#path3354,0,1|#path3352,0,1|#path3350,0,1"
       id="path-effect2335"
       is_visible="true"
       lpeversion="0"
       join="true"
       close="true"
       autoreverse="true"
       applied="false" />
    <inkscape:path-effect
       effect="fill_between_many"
       method="originald"
       linkedpaths="#path3406,0,1|#path3404,0,1|#path3465,0,1|#path3402,0,1|#path3400,0,1|#path3398,0,1|#path3396,0,1|#path3394,0,1|#path3392,0,1|#path3390,0,1|#path3388,0,1|#path3386,0,1|#path3384,0,1|#path3382,0,1|#path3380,0,1|#path3378,0,1|#path3376,0,1|#path3374,0,1|#path3372,0,1|#path3370,0,1|#path3368,0,1|#path3366,0,1|#path3364,0,1|#path3362,0,1|#path3360,0,1|#path3358,0,1|#path3356,0,1|#path3354,0,1|#path3352,0,1|#path3350,0,1"
       id="path-effect6534"
       is_visible="true"
       lpeversion="0"
       join="true"
       close="true"
       autoreverse="true"
       applied="false" />
    <clipPath
       clipPathUnits="userSpaceOnUse"
       id="clipPath2352">
      <g
         inkscape:label="Clip"
         id="use2354">
        <path
           style="fill:#ff7585;fill-opacity:1;fill-rule:evenodd;stroke:#ffffff;stroke-width:0.427633;stroke-linecap:butt;stroke-linejoin:miter;stroke-miterlimit:4;stroke-dasharray:none;stroke-opacity:1"
           d="m 116.10732,116.28627 a 10.601461,11.028364 0.44326852 0 0 -3.82519,12.4144 10.601461,11.028364 0.44326852 0 0 10.2225,7.53059 10.601461,11.028364 0.44326852 0 0 9.99084,-7.8724 10.601461,11.028364 0.44326852 0 0 -4.19655,-12.27875"
           id="path2436" />
      </g>
    </clipPath>
  </defs>
  <g
     inkscape:groupmode="layer"
     id="layer4"
     inkscape:label="Background"
     transform="translate(-16.92483,-18.011268)"
     sodipodi:insensitive="true">
    <ellipse
       style="fill:#514c5f;fill-rule:evenodd;stroke:#ffffff;stroke-width:3.6352;paint-order:markers fill stroke"
       id="path7160"
       cx="122.04512"
       cy="124.44372"
       rx="74.638"
       ry="67.442276" />
  </g>
  <g
     inkscape:groupmode="layer"
     id="layer3"
     inkscape:label="Sax"
     transform="translate(-16.92483,-18.011268)"
     sodipodi:insensitive="true">
    <g
       id="g2399"
       transform="matrix(0.13986009,0.08123847,-0.08123847,0.13986009,141.1708,66.724207)"
       style="fill:#ff9767">
      <path
         inkscape:original-d="M -86.770823,-297.89635"
         inkscape:path-effect="#path-effect2335"
         d="M -86.770823,-297.89635"
         id="path6536-5"
         style="fill:#ff9767;stroke-width:3.2" />
      <path
         style="fill:#ff9767;stroke:#ffffff;stroke-width:6.5152;stroke-miterlimit:4;stroke-dasharray:none;paint-order:markers fill stroke"
         d="m 88.866678,-151.85885 v 1e-5 c 3.145718,-0.15488 6.259219,0.74447 9.017158,2.21642 6.427884,3.10688 10.909934,9.35787 12.401684,16.27404 1.98225,8.77073 0.78228,19.17961 -5.85236,25.7551 -4.42163,4.39813 -11.39797,4.45767 -16.872732,2.18569 -5.830768,2.16275 -11.395558,4.96967 -17.208275,7.175294 -8.281232,3.418368 -17.798464,4.338413 -26.285475,1.080951 -6.651136,-0.113216 -13.347111,0.516541 -19.981251,1.175001 -8.208109,6.928842 -18.95281,10.541367 -29.2937508,11.975002 -17.6655132,2.493843 -35.8599812,0.460422 -53.7177272,1.829914 -5.259455,0.4499 -10.821913,1.67935 -16.064122,-0.291424 -2.004284,-0.500567 -2.705691,-2.898967 -1.20565,-4.357248 3.894024,-4.723034 10.195561,-6.085239 15.748214,-7.81738 16.005135,-6.85543 32.472396,-13.27139 49.076786,-18.29512 17.30496,-5.23068 35.121066,-8.84422 53.15625,-10.23125 10.384636,-1.79784 18.137795,-9.63268 25.723913,-16.31604 6.188842,-5.35115 12.756775,-11.74339 21.357338,-12.35896 z"
         id="path3406-8" />
      <path
         id="path3404-8"
         style="fill:#ff9767;stroke:#ffffff;stroke-width:3.6352;stroke-miterlimit:4;stroke-dasharray:none;paint-order:markers fill stroke"
         d="m 457.98652,135.87984 c -1.15926,-7.7e-4 -2.31734,0.003 -3.47597,0.016 -1.15865,0.01 -2.31673,0.0256 -3.4743,0.0464 -0.97043,0.0336 -1.94371,0.0698 -2.91706,0.10912 -0.97331,0.0394 -1.94803,0.0819 -2.92364,0.12896 -0.97559,0.047 -1.95136,0.0979 -2.92858,0.15392 -0.97725,0.0557 -1.95539,0.11776 -2.9336,0.18368 -0.97818,0.0659 -1.95667,0.136 -2.9352,0.21344 -0.97853,0.0774 -1.95702,0.16128 -2.93523,0.2512 -0.97821,0.0902 -1.95632,0.18656 -2.93357,0.2912 -0.97725,0.10432 -1.95459,0.21568 -2.93024,0.33568 -0.97565,0.12 -1.95027,0.24864 -2.92368,0.38531 -0.97338,0.13664 -1.94486,0.2816 -2.91536,0.43655 -0.9705,0.15488 -1.9385,0.32 -2.90547,0.49443 -0.96695,0.1744 -1.93277,0.35866 -2.89552,0.55398 -0.96275,0.1952 -1.92272,0.4009 -2.88064,0.61847 -0.47898,0.1088 -0.95773,0.22112 -1.43536,0.33568 -0.47763,0.11456 -0.95421,0.23168 -1.43043,0.35222 -0.4762,0.12064 -0.95236,0.24384 -1.42708,0.37043 -0.47475,0.12672 -0.94899,0.25728 -1.42214,0.39024 -0.47315,0.13312 -0.94567,0.2688 -1.41719,0.40848 -0.47148,0.13952 -0.94076,0.28224 -1.41056,0.42829 -0.97695,0.37712 -1.9943,0.74522 -3.00796,1.14103 -0.50685,0.19776 -1.01347,0.40278 -1.51309,0.62009 -0.24992,0.1088 -0.49818,0.22048 -0.74416,0.33571 -0.24608,0.1152 -0.49014,0.23392 -0.73088,0.35719 -0.24064,0.1232 -0.47859,0.2512 -0.71274,0.38365 -0.23424,0.13248 -0.46336,0.2688 -0.68956,0.41174 -0.22624,0.14272 -0.44791,0.29216 -0.66477,0.4465 -0.21696,0.15424 -0.4288,0.31392 -0.63501,0.48121 -0.20608,0.16736 -0.40778,0.34122 -0.60192,0.52253 -0.19424,0.18144 -0.38151,0.37059 -0.56224,0.5672 -0.1808,0.19648 -0.35494,0.40038 -0.5209,0.6135 -0.0829,0.10656 -0.16416,0.21664 -0.2432,0.32743 -0.079,0.11104 -0.15488,0.22368 -0.22976,0.33901 -0.0256,0.0944 -0.0483,0.18752 -0.0662,0.27936 -0.0192,0.0918 -0.032,0.18336 -0.0413,0.27296 -0.01,0.0896 -0.016,0.1776 -0.016,0.26464 -0.002,0.087 -4.8e-4,0.17312 0.006,0.25792 0.006,0.0848 0.0128,0.16736 0.0256,0.2496 0.0128,0.0822 0.0288,0.16448 0.048,0.2448 0.0192,0.0803 0.0406,0.1584 0.0662,0.23648 0.0256,0.0781 0.0547,0.15584 0.0861,0.23168 0.0627,0.15168 0.13728,0.29824 0.22144,0.44153 0.0845,0.14336 0.17792,0.28288 0.28128,0.41837 0.10304,0.13536 0.21504,0.2672 0.33405,0.39523 0.11904,0.128 0.24512,0.2528 0.37703,0.37373 0.13184,0.12096 0.26944,0.23776 0.41174,0.35222 0.14208,0.11424 0.28864,0.22592 0.43824,0.33402 0.14944,0.10816 0.3024,0.21344 0.45638,0.31584 0.15392,0.1024 0.30912,0.20224 0.46468,0.2992 0.31103,0.19424 0.62246,0.37859 0.92275,0.55395 0.30016,0.17536 0.58835,0.34115 0.85494,0.50106 0.32784,0.15392 0.65706,0.30432 0.9872,0.45145 0.33018,0.1472 0.66147,0.29248 0.99386,0.43325 0.33238,0.1408 0.66595,0.27712 1.00045,0.41178 0.33449,0.13472 0.67056,0.26656 1.00707,0.3952 0.33651,0.12864 0.6736,0.25408 1.01203,0.37705 0.33843,0.12288 0.67837,0.2432 1.01865,0.36048 0.68058,0.23424 1.36477,0.45824 2.05217,0.6714 0.68742,0.21312 1.37852,0.41504 2.07203,0.60854 0.6935,0.1936 1.38966,0.37853 2.08854,0.55395 0.69888,0.17536 1.3999,0.34211 2.10343,0.50106 0.70352,0.15904 1.40924,0.30912 2.11667,0.45312 0.70745,0.144 1.41597,0.28096 2.12659,0.41174 0.71066,0.13088 1.42342,0.25632 2.13651,0.37539 0.71312,0.11904 1.42666,0.23328 2.14147,0.34228 0.71485,0.10912 1.4306,0.21376 2.14644,0.31424 0.71584,0.10048 1.43196,0.19744 2.14809,0.29088 0.71613,0.0938 1.43242,0.18272 2.1481,0.27136 1.43136,0.17664 2.86102,0.34582 4.28624,0.51097 1.20329,0.11584 2.40701,0.224 3.61155,0.32413 1.20454,0.10016 2.40925,0.192 3.61488,0.27616 1.20563,0.0842 2.41331,0.16 3.61984,0.22816 1.20649,0.0682 2.41258,0.12992 3.61981,0.18176 1.20723,0.0522 2.41536,0.095 3.62313,0.13056 1.20778,0.0358 2.41501,0.0634 3.62314,0.0829 1.20816,0.0192 2.41648,0.0288 3.6248,0.033 1.20832,0.003 2.41648,-0.003 3.6248,-0.016 1.20832,-0.0128 2.41664,-0.0368 3.6248,-0.0678 1.20813,-0.032 2.41699,-0.0694 3.62477,-0.11744 1.20777,-0.048 2.41424,-0.10528 3.6215,-0.17024 1.20723,-0.065 2.41494,-0.1376 3.62147,-0.21984 1.20653,-0.0822 2.41255,-0.17312 3.61818,-0.27296 1.20563,-0.0998 2.4103,-0.20832 3.61488,-0.32576 1.20454,-0.11744 2.40826,-0.24352 3.61155,-0.37872 1.20333,-0.13504 2.40637,-0.28032 3.60826,-0.43322 1.20486,-0.18464 2.41443,-0.36832 3.62646,-0.55894 1.21203,-0.19072 2.42679,-0.38778 3.63965,-0.59696 0.60646,-0.10464 1.2119,-0.21248 1.81737,-0.32413 0.60548,-0.11168 1.21034,-0.2272 1.81405,-0.34726 0.60372,-0.12032 1.20627,-0.24512 1.80743,-0.37539 0.60115,-0.13024 1.20134,-0.26624 1.79917,-0.40845 0.59782,-0.14208 1.19391,-0.28928 1.78758,-0.44483 0.59369,-0.15552 1.18563,-0.31904 1.77437,-0.48948 0.58876,-0.17024 1.17478,-0.34729 1.75782,-0.53411 0.58304,-0.18688 1.1631,-0.38217 1.73965,-0.58704 0.57654,-0.2048 1.14889,-0.42045 1.71814,-0.64493 0.56922,-0.22464 1.13546,-0.45875 1.69664,-0.70444 0.28064,-0.12288 0.55997,-0.24864 0.8384,-0.37706 0.2784,-0.12832 0.55562,-0.2592 0.83178,-0.39357 0.27616,-0.13408 0.55139,-0.27136 0.82515,-0.41174 0.27392,-0.14016 0.5456,-0.28352 0.8169,-0.42995 0.12832,-0.0694 0.2608,-0.14496 0.39689,-0.22496 0.136,-0.08 0.27616,-0.1648 0.41671,-0.25472 0.1408,-0.0899 0.28288,-0.18368 0.42499,-0.28288 0.14208,-0.0989 0.28448,-0.2032 0.42499,-0.31072 0.1408,-0.10752 0.27904,-0.21856 0.41507,-0.33405 0.136,-0.11552 0.2688,-0.23456 0.39687,-0.35719 0.128,-0.12256 0.25152,-0.2496 0.36877,-0.37868 0.11712,-0.12896 0.22752,-0.26016 0.33072,-0.3952 0.10304,-0.13504 0.19872,-0.27328 0.28448,-0.41341 0.0858,-0.14016 0.16256,-0.28192 0.22816,-0.42666 0.0326,-0.0723 0.0624,-0.14656 0.0893,-0.21984 0.0256,-0.0733 0.0518,-0.1472 0.0726,-0.22176 0.0224,-0.0742 0.0384,-0.14816 0.0528,-0.22336 0.016,-0.0752 0.0256,-0.15072 0.033,-0.22656 0.006,-0.0758 0.0128,-0.15168 0.0128,-0.22816 5.1e-4,-0.0765 -0.003,-0.15424 -0.01,-0.23168 -0.006,-0.0771 -0.0192,-0.15392 -0.033,-0.23136 -0.016,-0.0778 -0.0342,-0.1568 -0.0579,-0.23488 -0.0224,-0.0781 -0.0518,-0.15648 -0.0845,-0.23488 -0.0323,-0.0784 -0.0691,-0.15616 -0.11072,-0.23488 -0.0416,-0.0787 -0.0877,-0.15744 -0.13888,-0.23648 -0.0512,-0.079 -0.10752,-0.15744 -0.16864,-0.23648 -0.12512,-0.13376 -0.2512,-0.26528 -0.38036,-0.39357 -0.12928,-0.12832 -0.2608,-0.25408 -0.39356,-0.37702 -0.1328,-0.12288 -0.26688,-0.24288 -0.40349,-0.36051 -0.13632,-0.11776 -0.2752,-0.23296 -0.41504,-0.3456 -0.27968,-0.22528 -0.56583,-0.43991 -0.85824,-0.64656 -0.29248,-0.20672 -0.59082,-0.40589 -0.89466,-0.59533 -0.30368,-0.18944 -0.61376,-0.37034 -0.92768,-0.54406 -0.31392,-0.17376 -0.63142,-0.33991 -0.95414,-0.4994 -0.32275,-0.15936 -0.6504,-0.31136 -0.98061,-0.45804 -0.33024,-0.14688 -0.66403,-0.28768 -1.00048,-0.42333 -0.33645,-0.13568 -0.67562,-0.26592 -1.01699,-0.39194 -0.34138,-0.12576 -0.68522,-0.24768 -1.03021,-0.36544 -0.34499,-0.11776 -0.69117,-0.23136 -1.0385,-0.3423 -0.34733,-0.11104 -0.6951,-0.21984 -1.04345,-0.32576 -0.69671,-0.21184 -1.39383,-0.41335 -2.08688,-0.61351 -0.69309,-0.20032 -1.38304,-0.39795 -2.06212,-0.59862 -0.56092,-0.13696 -1.12105,-0.27136 -1.68342,-0.40186 -0.56234,-0.13024 -1.1263,-0.25664 -1.69002,-0.38032 -0.56371,-0.12384 -1.12832,-0.2448 -1.69331,-0.36214 -0.56502,-0.11712 -1.1304,-0.23136 -1.69667,-0.3423 -0.56624,-0.11104 -1.13248,-0.21792 -1.69994,-0.32247 -0.56742,-0.10464 -1.13632,-0.20736 -1.70489,-0.30592 -0.56858,-0.0986 -1.13693,-0.19328 -1.70656,-0.28608 -0.56967,-0.0928 -1.14087,-0.18272 -1.71152,-0.26944 -1.14138,-0.17376 -2.28455,-0.33625 -3.4297,-0.48781 -1.14512,-0.15168 -2.2911,-0.29312 -3.43955,-0.42332 -1.14848,-0.13024 -2.29984,-0.25024 -3.45117,-0.36052 -1.15136,-0.1104 -2.30397,-0.2096 -3.45776,-0.30112 -1.15382,-0.0912 -2.30861,-0.17472 -3.46441,-0.248 -1.15581,-0.0733 -2.31197,-0.13664 -3.46935,-0.1936 -1.15737,-0.0566 -2.31577,-0.10624 -3.4743,-0.1472 -1.1585,-0.041 -2.31677,-0.0742 -3.47597,-0.1008 -1.1592,-0.0256 -2.31818,-0.0464 -3.4776,-0.0595 -1.15945,-0.0128 -2.32,-0.0192 -3.47929,-0.0192 z" />
      <path
         id="path3465-7"
         style="fill:#ff9767;stroke:#ffffff;stroke-width:6.8352;stroke-miterlimit:4;stroke-dasharray:none;paint-order:markers fill stroke"
         d="m 204.31228,-185.67985 c -1.19699,0.002 -2.39237,0.0288 -3.58841,0.0777 h -0.002 c -6.73244,0.37305 -13.89644,1.26675 -20.42253,3.58676 -10.10306,7.48453 -22.42935,10.89767 -34.04361,15.27142 -9.51822,3.51547 -19.10274,6.74153 -27.49848,12.72812 -4.1109,2.97531 -7.71993,6.93622 -8.64691,12.1824 -0.84354,3.91992 1.58701,7.49449 2.42755,11.22164 0.89349,1.23922 0.51639,5.41508 2.58961,3.92741 20.66556,-9.78932 41.13312,-21.95582 64.25407,-24.95021 6.64853,-0.78051 13.50943,-0.99462 20.07856,0.37042 11.72158,3.72765 21.82182,12.29744 27.02884,23.48839 7.33292,15.23458 7.82569,32.565369 7.84489,49.157926 -0.50151,41.915866 0.032,83.8961984 -3.08074,125.728352 -5.50386,2.666144 -12.05115,6.241248 -13.77818,12.747936 -1.43517,6.831232 2.63778,13.207936 6.01597,18.801952 4.7894,8.014592 11.31098,15.645184 12.50653,25.224734 1.31796,17.11018 2.62698,34.22099 3.95056,51.33082 -5.68291,2.2799 -11.74658,6.45241 -12.40069,13.07206 -0.64911,7.97731 4.14669,15.14487 8.96607,21.05754 4.03654,4.62662 8.49817,9.12803 14.04608,11.90787 -1.30784,44.29501 -1.83559,89.23005 9.80941,132.28672 4.81737,17.85539 11.78441,34.85155 21.22124,50.7289 13.63146,26.29779 29.0682,52.26662 50.56519,72.95884 13.51494,13.00026 29.9008,23.48224 48.34928,27.897 8.84896,2.22924 17.80909,2.7224 27.01232,2.46064 27.89619,-0.42845 56.37011,-3.51261 82.34989,-14.4264 12.69302,-5.43098 24.74166,-12.78036 34.58931,-22.50119 13.3136,-20.6815 24.27478,-43.56637 29.29763,-67.5663 4.43235,-21.16544 3.55533,-43.91549 -5.43056,-63.81914 -10.15769,-33.14019 -26.35158,-64.54227 -31.71859,-99.05008 -0.8593,-5.17321 -1.47255,-10.41536 -0.72429,-15.64349 1.56189,-15.42182 5.81853,-31.19712 15.61043,-43.519 3.27495,-4.13271 7.81207,-7.69341 12.25021,-9.98804 -16.3143,-11.94243 -36.64992,-16.09107 -56.26198,-18.9392 -11.04951,-1.54515 -22.11856,-2.99344 -33.16224,-4.6583 -16.51882,-1.42826 -33.36,-2.8513 -49.81277,0.48781 -9.3177,1.94886 -19.13402,6.23565 -23.96298,14.9159 3.39277,24.07517 -4.62156,48.32032 -0.28768,72.15683 0.83559,4.44122 2.19018,8.67552 3.19155,13.33335 6.34849,24.97293 19.07175,47.94387 31.42256,70.51312 12.56791,22.95581 25.22561,46.38425 31.06871,72.11053 1.02297,10.18979 -0.90986,21.65843 -8.83872,28.8247 -7.60496,7.04573 -19.44493,7.60653 -28.51879,3.22461 -8.25193,-3.76128 -14.7166,-10.74784 -18.88134,-18.70605 -7.49555,-3.68077 -11.06,-12.03002 -12.17907,-19.88838 -1.81427,-9.8624 -0.67763,-20.23562 -4.07792,-29.7888 -1.56435,-4.69284 -6.2152,-7.7977 -11.10423,-7.83994 -2.84393,-0.20576 -5.68627,0.18752 -8.48153,0.67965 -3.20125,-1.81162 -6.23693,-5.59523 -4.53101,-9.41917 2.78883,-5.74662 8.7801,-8.84186 13.15808,-13.21923 3.28218,-3.01191 7.16093,-7.44138 5.25363,-12.21715 -1.17014,-3.00173 -3.62604,-5.23933 -6.04409,-7.25783 0.59225,-2.9567 -1.62672,-5.40544 -4.31767,-6.23094 -4.72892,-2.04579 -10.37177,-1.80855 -14.64633,-4.86669 -2.89021,-2.3193 -1.02384,-6.35581 1.16416,-8.44352 1.06262,-1.38003 2.32854,-2.492 4.13907,-2.56976 5.11133,-1.04614 9.19648,-5.2857 10.06739,-10.42624 0.95511,-4.81123 0.98013,-9.8721 0.53744,-14.69098 -3.78224,-6.84425 -11.97389,-8.49686 -18.6184,-11.29606 -2.75341,-0.98301 -5.29536,-3.90579 -3.89433,-6.92547 3.04467,-6.93431 11.69433,-9.39936 14.25609,-16.6241 1.65245,-5.41821 -2.68742,-10.25715 -6.50381,-13.52352 -6.592,-5.79734 -14.79587,-9.28889 -21.73385,-14.58349 -2.12381,-8.99356 -4.75296,-18.82307 -1.16746,-27.79945 2.54189,-6.20727 8.3633,-10.33245 14.43136,-12.69504 3.36019,-5.65306 0.72346,-12.59498 -2.46064,-17.71549 -2.74768,-4.08864 -6.17187,-8.38726 -11.08438,-9.82102 -2.1777,0.0563 -4.38048,0.45248 -6.58151,0.56224 3.44733,-3.86032 8.3746,-6.09168 11.38205,-10.393156 5.28554,-6.674304 4.99968,-16.328 0.8632,-23.493344 -4.35545,-8.165056 -12.20509,-14.309216 -21.17824,-16.58608 -3.31222,-0.62944 -1.99811,-1.220704 0.53578,-1.802464 6.36784,-1.822688 13.7702,-4.647392 16.18755,-11.433312 2.21344,-7.099328 -2.09859,-14.339232 -6.9817,-19.22528 -4.92137,-4.856688 -11.81014,-8.850288 -18.94749,-7.522435 -1.04953,-0.230368 -5.96835,1.001859 -3.48256,-0.565549 4.6289,-3.869392 10.21127,-6.521382 14.32388,-11.0364256 5.9246,-5.7693312 10.04608,-14.3802688 7.77379,-22.7227554 -0.83578,-3.468582 -2.51994,-6.689133 -4.60045,-9.569645 -7.28829,0.03766 -14.74413,-3.723606 -17.97514,-10.456003 -4.62,-9.505264 -3.3248,-20.666371 -0.6135,-30.531264 2.37782,-8.007824 5.8896,-15.919629 11.60694,-22.119168 -4.81936,-5.807107 -11.93548,-9.646969 -15.53104,-16.442199 -2.83872,-5.43938 0.016,-11.70364 3.6529,-15.98579 1.68678,-1.15199 -0.0867,-2.91216 -0.59034,-4.28956 -4.427,-8.43587 -15.20864,-10.48117 -19.94793,-18.67462 -2.50858,-3.73142 -3.32522,-8.30065 -4.21847,-12.55283 -12.48384,-16.19226 -32.51408,-25.07626 -52.47508,-27.40091 -3.56718,-0.41369 -7.1594,-0.61839 -10.75036,-0.61185 z m 253.67424,321.55969 c 1.15926,7.7e-4 2.31981,0.006 3.47927,0.0192 1.15945,0.0128 2.3184,0.033 3.47759,0.0595 1.15924,0.0256 2.31748,0.0598 3.47597,0.1008 1.15853,0.041 2.31693,0.0906 3.47431,0.1472 1.15741,0.0566 2.31353,0.12 3.46937,0.1936 1.15581,0.0733 2.31056,0.1568 3.46439,0.248 1.15379,0.0912 2.3064,0.19072 3.45776,0.3008 1.15136,0.1104 2.30272,0.23008 3.45116,0.36051 1.14845,0.13024 2.29447,0.27168 3.43959,0.42333 1.14512,0.15168 2.28829,0.31392 3.42966,0.48781 0.57069,0.087 1.14186,0.17696 1.71152,0.26944 0.56967,0.0928 1.13799,0.18752 1.70656,0.28608 0.56858,0.0986 1.13747,0.20128 1.7049,0.30592 0.56745,0.10464 1.13369,0.21152 1.69997,0.32246 0.56624,0.11072 1.13161,0.22496 1.69664,0.34231 0.56499,0.11712 1.12963,0.2384 1.69331,0.36214 0.56371,0.12384 1.12768,0.24992 1.69005,0.38035 0.56233,0.13024 1.12246,0.26464 1.68339,0.40183 0.67907,0.20064 1.36902,0.39843 2.06211,0.59862 0.69306,0.20032 1.39018,0.40176 2.08688,0.61351 0.34835,0.10592 0.69613,0.21472 1.04346,0.32576 0.34732,0.11104 0.6935,0.22464 1.03849,0.3423 0.345,0.11776 0.68887,0.23968 1.03021,0.36544 0.34138,0.12608 0.68055,0.25632 1.01699,0.39194 0.33648,0.13568 0.67024,0.27648 1.00048,0.42332 0.33024,0.14688 0.65789,0.29856 0.98061,0.45805 0.32272,0.15936 0.64023,0.3257 0.95414,0.49943 0.31393,0.17376 0.62388,0.35459 0.92772,0.54403 0.30368,0.18944 0.60217,0.38864 0.89462,0.59533 0.29248,0.20672 0.5785,0.42115 0.85824,0.64656 0.13984,0.11264 0.27872,0.22784 0.41504,0.34563 0.13632,0.11776 0.27072,0.23776 0.40349,0.36048 0.1328,0.12288 0.26432,0.24896 0.3936,0.37702 0.12896,0.12832 0.25504,0.25984 0.38032,0.39357 0.0611,0.079 0.11744,0.15776 0.16864,0.23648 0.0512,0.079 0.0973,0.15776 0.13888,0.23648 0.0416,0.0787 0.0784,0.15648 0.11072,0.23488 0.0323,0.0784 0.0608,0.1568 0.0845,0.23488 0.0224,0.0781 0.0429,0.15712 0.0579,0.23488 0.016,0.0778 0.0256,0.15424 0.033,0.23168 0.006,0.0771 0.01,0.15488 0.01,0.23136 -4.8e-4,0.0765 -0.006,0.15232 -0.0128,0.22816 -0.006,0.0758 -0.0192,0.15136 -0.0333,0.22656 -0.016,0.0752 -0.032,0.1488 -0.0528,0.22336 -0.0224,0.0742 -0.0458,0.14816 -0.0726,0.22144 -0.0256,0.0733 -0.0566,0.14752 -0.0893,0.21984 -0.0656,0.14464 -0.1424,0.2864 -0.22816,0.42666 -0.0858,0.14016 -0.18144,0.2784 -0.28448,0.4134 -0.10304,0.13504 -0.21376,0.26592 -0.33072,0.39524 -0.11712,0.12896 -0.24064,0.256 -0.36877,0.37865 -0.128,0.12256 -0.2608,0.24192 -0.39686,0.35722 -0.136,0.11552 -0.27456,0.22656 -0.41507,0.33401 -0.14048,0.10752 -0.28288,0.21184 -0.425,0.31072 -0.14208,0.0989 -0.28416,0.19296 -0.42496,0.28288 -0.1408,0.0899 -0.28064,0.17472 -0.41673,0.25472 -0.136,0.08 -0.2688,0.15552 -0.39687,0.22496 -0.27136,0.14656 -0.54313,0.2896 -0.81689,0.42996 -0.27392,0.14016 -0.54906,0.27744 -0.82519,0.41177 -0.27616,0.13408 -0.55337,0.26496 -0.83177,0.39354 -0.2784,0.12864 -0.55783,0.25408 -0.8384,0.37705 -0.56116,0.24576 -1.12739,0.47994 -1.69664,0.70445 -0.56925,0.22464 -1.1416,0.44003 -1.71815,0.64493 -0.57654,0.2048 -1.15657,0.40022 -1.73965,0.58704 -0.58304,0.18688 -1.16905,0.36378 -1.75782,0.53411 -0.58874,0.17024 -1.18067,0.33405 -1.77434,0.48951 -0.59369,0.15552 -1.18979,0.30272 -1.78761,0.44483 -0.59779,0.14208 -1.19799,0.27808 -1.79917,0.40845 -0.60115,0.13024 -1.20371,0.25504 -1.80742,0.37536 -0.60372,0.12032 -1.20858,0.23552 -1.81405,0.34726 -0.60547,0.11168 -1.21091,0.21952 -1.81735,0.32413 -1.21289,0.20928 -2.42764,0.40633 -3.63968,0.59696 -1.21203,0.19072 -2.4216,0.37427 -3.62646,0.55894 -1.20186,0.15296 -2.40493,0.29824 -3.60826,0.43325 -1.20329,0.13504 -2.40697,0.26144 -3.61155,0.37869 -1.20454,0.11744 -2.40921,0.22592 -3.61488,0.32576 -1.20563,0.0998 -2.41165,0.1904 -3.61817,0.27296 -1.20653,0.0822 -2.41424,0.15488 -3.62148,0.21984 -1.20723,0.065 -2.41369,0.12256 -3.62147,0.17024 -1.20781,0.048 -2.41667,0.0864 -3.6248,0.11744 -1.20813,0.032 -2.41648,0.0538 -3.6248,0.0678 -1.20832,0.0128 -2.41648,0.0192 -3.6248,0.016 -1.20829,-0.003 -2.41664,-0.0128 -3.62477,-0.0333 -1.20816,-0.0192 -2.41536,-0.047 -3.62313,-0.0826 -1.20778,-0.0358 -2.4159,-0.0787 -3.62314,-0.13056 -1.20726,-0.0522 -2.41331,-0.1136 -3.61984,-0.18176 -1.20653,-0.0682 -2.41421,-0.144 -3.61984,-0.22816 -1.20563,-0.0842 -2.4103,-0.176 -3.61485,-0.27616 -1.20457,-0.10016 -2.40828,-0.20832 -3.61158,-0.32413 -1.42522,-0.16512 -2.85488,-0.33421 -4.28624,-0.51098 -0.71568,-0.0883 -1.43197,-0.1776 -2.1481,-0.27104 -0.71612,-0.0938 -1.43222,-0.1904 -2.14809,-0.29088 -0.71584,-0.10048 -1.43159,-0.20512 -2.1464,-0.31424 -0.71485,-0.10912 -1.42839,-0.22304 -2.14151,-0.3423 -0.71308,-0.11904 -1.42585,-0.24448 -2.13651,-0.37539 -0.71062,-0.13088 -1.41913,-0.26752 -2.12656,-0.41175 -0.70745,-0.144 -1.41315,-0.29408 -2.11667,-0.45312 -0.70352,-0.15904 -1.40458,-0.3256 -2.10346,-0.50105 -0.69888,-0.17536 -1.39504,-0.36048 -2.08854,-0.55395 -0.6935,-0.1936 -1.38461,-0.39543 -2.072,-0.60855 -0.68742,-0.21312 -1.37162,-0.43699 -2.05219,-0.67139 -0.34029,-0.11712 -0.68019,-0.23776 -1.01866,-0.36048 -0.33843,-0.12288 -0.67552,-0.24832 -1.01203,-0.37702 -0.33651,-0.12864 -0.67258,-0.26048 -1.00707,-0.39524 -0.33447,-0.13472 -0.66807,-0.27104 -1.00045,-0.41174 -0.33238,-0.1408 -0.66368,-0.28608 -0.99382,-0.43328 -0.33018,-0.1472 -0.65936,-0.2976 -0.98724,-0.45142 -0.26656,-0.16 -0.55465,-0.3257 -0.85494,-0.50106 -0.30016,-0.17536 -0.61168,-0.35978 -0.92272,-0.55398 -0.15552,-0.097 -0.31072,-0.1968 -0.4647,-0.2992 -0.15392,-0.1024 -0.30688,-0.20768 -0.45639,-0.31584 -0.14944,-0.10816 -0.296,-0.21952 -0.43824,-0.33402 -0.14208,-0.11456 -0.27968,-0.23136 -0.41174,-0.35222 -0.13184,-0.12096 -0.25792,-0.24576 -0.37703,-0.37373 -0.11904,-0.128 -0.23104,-0.25984 -0.33404,-0.39523 -0.10304,-0.13536 -0.1968,-0.2752 -0.28096,-0.41837 -0.0845,-0.14336 -0.15904,-0.28992 -0.22144,-0.44154 -0.032,-0.0758 -0.0608,-0.1536 -0.0861,-0.23136 -0.0256,-0.0781 -0.047,-0.15648 -0.0662,-0.23648 -0.0192,-0.0803 -0.0355,-0.16224 -0.048,-0.2448 -0.0128,-0.0822 -0.0224,-0.16512 -0.0256,-0.2496 -0.006,-0.0848 -0.006,-0.17088 -0.006,-0.25792 0.002,-0.087 0.006,-0.17504 0.016,-0.26464 0.01,-0.0896 0.0224,-0.1808 0.0413,-0.27296 0.0192,-0.0918 0.04,-0.18496 0.0662,-0.27936 0.0749,-0.11552 0.15072,-0.22816 0.22976,-0.33901 0.079,-0.11104 0.16,-0.2208 0.2432,-0.32739 0.16608,-0.21312 0.34019,-0.41693 0.52089,-0.6135 0.1808,-0.1968 0.3681,-0.38589 0.56224,-0.5672 0.19424,-0.18144 0.39575,-0.35533 0.60195,-0.52256 0.20608,-0.16736 0.41812,-0.32682 0.63498,-0.48122 0.21696,-0.15456 0.43856,-0.30368 0.66477,-0.44649 0.22624,-0.14272 0.45542,-0.27936 0.68957,-0.41175 0.23424,-0.13248 0.472,-0.26048 0.71273,-0.38365 0.24064,-0.1232 0.48496,-0.24192 0.73091,-0.35718 0.24608,-0.1152 0.49434,-0.2272 0.74413,-0.33571 0.49962,-0.21728 1.00624,-0.42221 1.51309,-0.6201 1.0137,-0.39581 2.03104,-0.76387 3.00797,-1.14102 0.46979,-0.14624 0.93907,-0.28864 1.41059,-0.42829 0.47149,-0.13952 0.944,-0.27552 1.41715,-0.40845 0.47319,-0.13312 0.94743,-0.26368 1.42215,-0.39027 0.47472,-0.12672 0.95088,-0.24992 1.4271,-0.3704 0.47622,-0.12064 0.95277,-0.23776 1.4304,-0.35222 0.47763,-0.11456 0.95638,-0.22688 1.43536,-0.33572 0.95792,-0.2176 1.91789,-0.42313 2.88064,-0.61846 0.96278,-0.1952 1.92858,-0.37952 2.89555,-0.55395 0.96695,-0.1744 1.93495,-0.33955 2.90544,-0.49447 0.9705,-0.15488 1.94199,-0.29984 2.91539,-0.43654 0.97338,-0.13664 1.948,-0.2656 2.92365,-0.38531 0.97565,-0.12 1.95299,-0.23136 2.93024,-0.33568 0.97725,-0.10432 1.95536,-0.20096 2.93357,-0.29088 0.97824,-0.0902 1.9567,-0.17408 2.93523,-0.25152 0.97853,-0.0774 1.95703,-0.14752 2.93523,-0.21344 0.97818,-0.0659 1.95632,-0.12768 2.93357,-0.18368 0.97722,-0.0557 1.95299,-0.10688 2.92861,-0.15392 0.97558,-0.047 1.9503,-0.0896 2.92365,-0.12896 0.97331,-0.0397 1.94659,-0.0758 2.91702,-0.10912 1.15757,-0.0192 2.31568,-0.0358 3.47431,-0.0464 1.15862,-0.01 2.3167,-0.016 3.47596,-0.016 z" />
      <path
         style="fill:#ff9767;stroke:#ffffff;stroke-width:3.6352;stroke-miterlimit:4;stroke-dasharray:none;paint-order:markers fill stroke"
         d="m 297.24793,-32.608849 c 4.22029,-0.762211 8.63683,0.0815 12.18733,2.514064 8.6695,5.684742 10.98889,18.262691 5.96864,27.0896734 -3.43104,6.4732 -11.06173,10.6043808 -18.35421,9.0419616 -9.04173,-1.8569056 -15.00666,-11.2412832 -14.42595,-20.18096 0.15232,-8.454125 6.136,-16.766992 14.62419,-18.464739 z"
         id="path3402-0" />
      <path
         style="fill:#ff9767;stroke:#ffffff;stroke-width:3.6352;stroke-miterlimit:4;stroke-dasharray:none;paint-order:markers fill stroke"
         d="m 287.92918,-102.78385 c 6.81024,-1.58408 14.28358,2.77439 15.63152,9.759769 1.46217,6.664441 -3.56192,13.598352 -10.20573,14.709341 -6.89949,1.506531 -14.61286,-3.506282 -15.35488,-10.660906 -1.05347,-6.332397 3.79664,-12.495324 9.92909,-13.808204 z"
         id="path3400-6" />
      <path
         style="fill:#ff9767;stroke:#ffffff;stroke-width:3.6352;stroke-miterlimit:4;stroke-dasharray:none;paint-order:markers fill stroke"
         d="m 281.04793,-134.09635 c 4.59136,-1.29818 9.05168,1.75462 10.91744,5.84452 3.05824,6.24884 1.08035,15.40161 -5.68215,18.24047 -5.15884,2.26141 -10.8199,-1.8724 -12.31686,-6.84636 -2.37158,-6.34761 0.18144,-15.05324 7.08157,-17.23863 z"
         id="path3398-1" />
      <path
         style="fill:#ff9767;stroke:#ffffff;stroke-width:3.6352;stroke-miterlimit:4;stroke-dasharray:none;paint-order:markers fill stroke"
         d="m 304.29791,-28.809137 h 1.6e-4 c 5.64365,-1.533434 10.54413,3.118355 12.36253,8.062499 1.74928,4.335802 1.79363,9.45897 0.2912,14.09816 -1.58134,5.044864 -6.28934,10.1305312 -12.0192,9.0278976 -6.38019,-1.342656 -9.68089,-8.339488 -9.95738,-14.3559166 -0.48201,-6.653421 2.47284,-14.63761 9.32269,-16.83264 z"
         id="path3396-3" />
      <path
         style="fill:#ff9767;stroke:#ffffff;stroke-width:3.6352;stroke-miterlimit:4;stroke-dasharray:none;paint-order:markers fill stroke"
         d="m 300.29791,17.684613 c 4.16768,-0.708544 8.4881,-0.112704 12.18752,1.974999 8.96803,4.735302 12.7545,16.69719 8.64323,25.860326 -3.16467,8.262048 -12.54393,13.633856 -21.25689,11.664384 -9.33901,-1.844832 -16.0072,-11.302848 -15.34231,-20.667264 0.20832,-8.893728 6.9393,-17.213485 15.76845,-18.832445 z"
         id="path3394-5" />
      <path
         style="fill:#ff9767;stroke:#ffffff;stroke-width:3.6352;stroke-miterlimit:4;stroke-dasharray:none;paint-order:markers fill stroke"
         d="m 306.95417,62.297122 c 4.99962,-0.986016 10.27939,0.348608 14.21181,3.582592 9.89088,7.835776 10.91085,23.889408 2.83129,33.336512 -4.74739,6.062914 -13.63353,8.555394 -20.68502,5.227904 -9.216,-4.17718 -13.63699,-15.30928 -11.78371,-24.939552 1.34931,-8.017344 7.25488,-15.488928 15.42563,-17.207456 z"
         id="path3392-8" />
      <path
         style="fill:#ff9767;stroke:#ffffff;stroke-width:3.6352;stroke-miterlimit:4;stroke-dasharray:none;paint-order:markers fill stroke"
         d="m 313.39167,68.909602 v -9.6e-5 c 1.99463,-0.32016 4.0248,-0.475936 5.9625,0.23136 7.98374,2.808416 11.36982,12.528736 9.62995,20.303072 -1.11229,6.441504 -6.38784,12.890492 -13.36835,12.707132 -7.39203,-0.32 -12.42051,-7.642172 -12.96304,-14.52118 -0.97927,-7.5976 2.9023,-16.543072 10.73894,-18.720288 z"
         id="path3390-1" />
      <path
         style="fill:#ff9767;stroke:#ffffff;stroke-width:3.6352;stroke-miterlimit:4;stroke-dasharray:none;paint-order:markers fill stroke"
         d="m 312.78543,108.72835 c 3.96077,-0.66112 8.06855,-0.10624 11.60359,1.83988 8.27753,4.24259 12.03158,15.09251 8.38953,23.59667 -2.94243,7.97859 -11.9294,13.06816 -20.27801,11.30585 -8.72855,-1.62057 -15.23504,-10.24726 -14.70999,-19.04809 0.14304,-8.44167 6.65159,-16.21863 14.99488,-17.69431 z"
         id="path3388-7" />
      <path
         style="fill:#ff9767;stroke:#ffffff;stroke-width:3.6352;stroke-miterlimit:4;stroke-dasharray:none;paint-order:markers fill stroke"
         d="m 320.81666,108.73475 c 4.13594,-1.1072 8.29431,1.07424 10.69332,4.40816 3.90169,5.3856 4.4792,12.22384 2.45216,18.47661 -1.64509,5.23146 -6.62224,10.40154 -12.5233,9.24762 -6.47888,-1.36563 -9.96297,-8.36461 -10.31501,-14.50563 -0.61715,-6.97664 2.51751,-15.33434 9.69283,-17.62676 z"
         id="path3386-3" />
      <path
         style="fill:#ff9767;stroke:#ffffff;stroke-width:3.6352;stroke-miterlimit:4;stroke-dasharray:none;paint-order:markers fill stroke"
         d="m 305.43542,19.60974 c 3.75568,-1.030423 7.6352,0.489126 10.20627,3.281238 6.35526,7.029024 6.81491,18.317984 2.09693,26.318528 -2.53482,4.862752 -8.82336,8.21392 -14.03028,5.456736 -6.38883,-3.316448 -8.97734,-11.118688 -8.7719,-17.946784 0.176,-6.916736 3.46768,-14.780906 10.49898,-17.109718 z"
         id="path3384-2" />
      <path
         style="fill:#ff9767;stroke:#ffffff;stroke-width:3.6352;stroke-miterlimit:4;stroke-dasharray:none;paint-order:markers fill stroke"
         d="m 327.19791,184.62224 c 4.10842,-0.76307 8.40637,0.0691 11.86288,2.43824 8.42935,5.53728 10.69731,17.76144 5.85789,26.37946 -3.36285,6.39811 -10.94906,10.52563 -18.13209,8.81222 -8.58432,-1.86617 -14.18343,-10.74365 -13.83783,-19.24614 0.048,-8.34941 5.82672,-16.71597 14.24915,-18.38378 z"
         id="path3382-2" />
      <path
         style="fill:#ff9767;stroke:#ffffff;stroke-width:3.6352;stroke-miterlimit:4;stroke-dasharray:none;paint-order:markers fill stroke"
         d="m 331.81042,184.62864 c 2.40839,-0.59478 4.91463,-0.21792 6.97357,1.19104 6.75904,4.80611 8.11466,14.56663 5.53328,21.9992 -1.57904,5.08551 -6.42217,10.18672 -12.17705,8.90128 -6.54343,-1.80819 -9.55082,-9.16125 -9.7073,-15.42829 -0.20544,-6.57996 2.63008,-14.39958 9.3775,-16.66323 z"
         id="path3380-7" />
      <path
         style="fill:#ff9767;stroke:#ffffff;stroke-width:3.6352;stroke-miterlimit:4;stroke-dasharray:none;paint-order:markers fill stroke"
         d="m 337.46668,229.21616 c 3.62208,-0.62473 7.33344,-0.2128 10.62499,1.4625 9.5968,4.70969 13.29821,17.51027 8.9025,26.99065 -3.0344,7.75357 -11.84381,13.08048 -20.10813,11.00368 -9.09891,-2.04022 -15.02208,-11.58131 -14.41674,-20.61744 0.18144,-8.64288 6.32173,-17.1152 14.99738,-18.83939 z"
         id="path3378-7" />
      <path
         style="fill:#ff9767;stroke:#ffffff;stroke-width:3.6352;stroke-miterlimit:4;stroke-dasharray:none;paint-order:markers fill stroke"
         d="m 345.12294,230.15363 c 2.49885,-0.63228 5.13216,-0.13216 7.21875,1.38128 6.51389,4.92298 7.80291,14.46903 5.25683,21.8152 -1.58342,5.07255 -6.41088,10.18477 -12.15846,8.9088 -6.55917,-1.79561 -9.56851,-9.16284 -9.72595,-15.43577 -0.20576,-6.59031 2.63606,-14.4256 9.40883,-16.66951 z"
         id="path3376-5" />
      <path
         style="fill:#ff9767;stroke:#ffffff;stroke-width:3.6352;stroke-miterlimit:4;stroke-dasharray:none;paint-order:markers fill stroke"
         d="m 342.80419,273.80989 c 6.28271,-1.13264 12.95292,0.91542 17.45686,5.44694 6.9127,6.57933 8.1039,18.01725 2.90073,25.95869 -4.84377,8.15376 -15.95142,11.77408 -24.60294,7.80215 -8.85456,-3.58074 -13.97043,-13.94698 -11.88982,-23.18567 1.52467,-7.96825 8.15664,-14.54953 16.13517,-16.02211 z"
         id="path3374-7" />
      <path
         style="fill:#ff9767;stroke:#ffffff;stroke-width:3.6352;stroke-miterlimit:4;stroke-dasharray:none;paint-order:markers fill stroke"
         d="m 349.02918,278.52864 c 7.77993,-1.85027 14.38854,5.08224 15.2831,12.34259 1.23047,7.37066 -2.83594,16.15421 -10.56374,17.86013 -6.77722,1.45834 -13.16525,-4.12003 -14.56576,-10.5232 -2.29175,-7.70899 1.62374,-17.5671 9.8464,-19.67952 z"
         id="path3372-3" />
      <path
         style="fill:#ff9767;stroke:#ffffff;stroke-width:3.6352;stroke-miterlimit:4;stroke-dasharray:none;paint-order:markers fill stroke"
         d="m 353.09167,324.1224 c 6.65252,-1.28861 13.64509,1.12291 18.24346,6.05632 8.36675,8.55338 8.56131,23.43229 0.63584,32.30554 -5.55328,6.79107 -15.84567,9.24281 -23.70928,5.18192 -9.40202,-4.3825 -14.16151,-15.78125 -12.07658,-25.71882 1.5433,-8.55574 8.256,-16.11334 16.90656,-17.82496 z"
         id="path3370-4" />
      <path
         style="fill:#ff9767;stroke:#ffffff;stroke-width:3.6352;stroke-miterlimit:4;stroke-dasharray:none;paint-order:markers fill stroke"
         d="m 358.31042,326.94115 c 4.01639,-0.73532 8.24701,-0.10688 11.69056,2.15133 7.07098,4.25671 9.77898,14.004 6.23498,21.3873 -2.92762,6.88777 -10.9361,11.04109 -18.23894,9.3135 -7.68509,-1.64368 -13.27232,-9.34211 -12.76442,-17.12278 0.16384,-7.42035 5.78925,-14.23792 13.07782,-15.72935 z"
         id="path3368-5" />
      <path
         style="fill:#ff9767;stroke:#ffffff;stroke-width:3.6352;stroke-miterlimit:4;stroke-dasharray:none;paint-order:markers fill stroke"
         d="m 434.69791,215.60989 c 6.50711,-0.64848 13.13927,-0.10432 19.32743,2.0871 7.56841,2.60372 14.81283,7.75616 18.4288,15.26004 3.97859,7.78201 2.09187,17.59545 -3.57472,24.0303 -8.456,9.6951 -22.17165,13.33411 -34.64727,11.8489 -10.56281,-1.34608 -21.33689,-6.63594 -26.61977,-16.23773 -3.76436,-6.62256 -3.46256,-15.11216 0.48038,-21.58429 5.64733,-9.16918 16.18605,-14.14074 26.60515,-15.40432 z"
         id="path3366-1" />
      <path
         style="fill:#ff9767;stroke:#ffffff;stroke-width:3.6352;stroke-miterlimit:4;stroke-dasharray:none;paint-order:markers fill stroke"
         d="m 488.14169,290.85367 c 12.15888,-1.49908 25.52035,2.91251 32.87229,13.0614 5.39523,7.13834 6.27843,17.26772 2.10381,25.19012 -5.35594,10.47772 -17.17341,16.42377 -28.66032,16.7888 -11.57799,0.55184 -23.92202,-4.39085 -30.38138,-14.31738 -5.03603,-7.26288 -5.39469,-17.29014 -1.05104,-24.96326 5.08272,-9.05728 15.01533,-14.4696 25.11664,-15.75968 z"
         id="path3364-7" />
      <path
         style="fill:#ff9767;stroke:#ffffff;stroke-width:3.6352;stroke-miterlimit:4;stroke-dasharray:none;paint-order:markers fill stroke"
         d="m 486.24793,374.29741 c 5.59955,-0.61782 11.34403,-0.0566 16.60074,2.0304 7.4838,2.7977 14.55856,9.55283 14.37104,18.04179 -0.16608,8.10327 -6.69088,14.51827 -13.84244,17.38083 -10.708,4.34816 -24.03616,3.14224 -33.00941,-4.4351 -5.50835,-4.37853 -8.28015,-12.28595 -5.45939,-18.94384 3.56067,-8.42544 12.65546,-12.94858 21.33946,-14.07408 z"
         id="path3362-6" />
      <path
         style="fill:#ff9767;stroke:#ffffff;stroke-width:3.6352;stroke-miterlimit:4;stroke-dasharray:none;paint-order:markers fill stroke"
         d="m 338.86044,416.05367 0.29344,-0.0192 0.31936,-0.0224 c 10.64922,-1.31568 22.72154,3.22332 27.80954,13.11257 4.04595,7.50675 1.48899,17.28887 -4.90256,22.65303 -10.53581,9.38025 -28.09277,9.40393 -38.68554,0.10112 -5.88829,-4.94804 -8.6543,-13.51037 -5.82909,-20.81204 3.28432,-8.61238 12.14973,-13.8438 20.99488,-15.01372 z"
         id="path3360-0" />
      <path
         style="fill:#ff9767;stroke:#ffffff;stroke-width:3.6352;stroke-miterlimit:4;stroke-dasharray:none;paint-order:markers fill stroke"
         d="m 239.41667,154.29114 c 4.19916,-0.84151 8.60371,0.13184 12.04377,2.68125 10.04797,7.419 11.3625,23.16108 4.11709,32.93513 -4.00586,5.72413 -11.84413,8.85155 -18.49491,6.08451 -8.55588,-3.3928 -12.95701,-13.22716 -12.28493,-22.04227 0.33074,-8.62832 5.8222,-17.63536 14.61898,-19.65862 z"
         id="path3358-6" />
      <path
         style="fill:#ff9767;stroke:#ffffff;stroke-width:3.6352;stroke-miterlimit:4;stroke-dasharray:none;paint-order:markers fill stroke"
         d="m 234.33542,158.09741 c 3.74576,-1.02256 7.59504,0.51712 10.16249,3.28749 6.35508,7.02928 6.81469,18.31827 2.09696,26.31853 -2.54509,4.85132 -8.82237,8.21609 -14.03028,5.45673 -6.47698,-3.37545 -9.07235,-11.34134 -8.7484,-18.26592 0.23555,-6.82 3.56743,-14.55709 10.51923,-16.79683 z"
         id="path3356-7" />
      <path
         style="fill:#ff9767;stroke:#ffffff;stroke-width:3.6352;stroke-miterlimit:4;stroke-dasharray:none;paint-order:markers fill stroke"
         d="m 227.21668,48.984898 c 3.64507,-0.716064 7.45938,-0.06112 10.59998,1.937504 9.28714,5.911264 11.481,19.359904 6.3849,28.70304 -3.13184,6.317408 -10.57581,10.773024 -17.63076,8.779808 -8.68454,-2.289248 -13.56904,-11.742944 -13.2235,-20.273248 0.11034,-8.357344 5.32485,-17.216352 13.86938,-19.147104 z"
         id="path3354-4" />
      <path
         style="fill:#ff9767;stroke:#ffffff;stroke-width:3.6352;stroke-miterlimit:4;stroke-dasharray:none;paint-order:markers fill stroke"
         d="m 224.15418,51.791138 c 3.9031,-0.97312 7.76252,0.88224 10.26249,3.837504 6.23551,7.629504 6.43078,19.392064 1.16527,27.560384 -2.66024,4.4928 -8.63238,7.274272 -13.52776,4.67712 -6.64531,-3.778016 -9.14483,-12.115264 -8.64618,-19.35952 0.38251,-6.796544 3.7242,-14.601504 10.74618,-16.715488 z"
         id="path3352-7" />
      <path
         style="fill:#ff9767;stroke:#ffffff;stroke-width:3.6352;stroke-miterlimit:4;stroke-dasharray:none;paint-order:markers fill stroke"
         d="m 15.585427,-119.9526 v 0 c 0.30624,-0.0272 0.612512,-0.054 0.918752,-0.0812 0.2704,2.89818 0.922025,5.74987 1.71046,8.54819 1.578349,6.61752 4.732538,13.759112 2.145789,20.520561 -3.347785,2.606749 -7.801155,3.828861 -11.9492318,4.809399 -17.0393024,3.343513 -34.4186242,-0.198048 -51.6000062,0.922947 -7.054576,0.698557 -14.130396,1.655677 -21.240942,1.092723 -4.018494,-0.452499 -8.561336,-0.307008 -11.991071,-2.693821 1.4607,-1.934429 3.886277,-2.799027 5.998265,-3.838429 9.220801,-3.439737 18.248871,-7.359168 27.28473,-11.2629 18.817949,-8.03577 38.2266914,-15.96013 58.723255,-18.01742 z"
         id="path3350-5" />
    </g>
  </g>
  <g
     inkscape:label="Trombone"
     inkscape:groupmode="layer"
     id="layer1"
     transform="translate(-16.92483,-18.011268)"
     sodipodi:insensitive="true">
    <path
       id="path10524"
       style="fill:#ffd66c;fill-opacity:1;stroke:#ffffff;stroke-width:1.92;stroke-linecap:round;stroke-linejoin:round;stroke-miterlimit:4;stroke-dasharray:none;stroke-opacity:1;paint-order:stroke markers fill"
       d="m 60.10268,72.460166 c -1.640623,1.024132 0.258221,13.299337 0.797925,16.063131 0.539692,2.763785 4.13862,9.244879 4.13862,9.244879 0,0 8.668823,15.728014 10.060767,18.060124 1.391945,2.3321 18.848628,31.04174 21.535631,35.93058 2.687016,4.88885 -0.413456,12.07727 -1.525504,13.72902 -1.11205,1.65175 -5.166176,4.5655 -5.166176,4.5655 0,0 -3.505707,1.95139 -8.647892,3.0638 -5.14219,1.11243 -10.095518,-3.15538 -10.095518,-3.15538 l -2.129693,-2.78329 -1.02827,0.22234 -0.07437,-0.10826 -0.359504,0.18765 -6.100825,-8.09304 1.2342,-0.71656 0.454883,-0.41997 -3.774886,-6.68992 -0.51542,0.0786 -0.610025,0.36841 -5.826791,-8.72352 -2.784745,-4.04908 0.788498,-0.59229 -10.322921,-15.90852 c 0,0 -18.773547,-28.744988 -21.53986,-34.067669 -2.766326,-5.322688 2.926457,-8.329182 7.37931,-10.005336 4.452853,-1.676153 8.888457,4.100184 8.888457,4.100184 l 2.901673,4.281414 z m -31.625938,9.233555 c -1.409507,-0.556307 -2.437084,0.298383 -4.23057,1.010978 -3.375972,1.341352 -1.638022,6.886779 -1.638022,6.886779 l 19.319666,28.713852 11.908373,17.79123 1.429297,0.0837 0.289776,0.41529 6.822028,-4.64606 -1.139597,-1.5856 0.261568,-0.21544 1.12e-4,-2.6e-4 0.656586,-0.98678 c 0,0 -16.972707,-25.17583 -25.165205,-37.13346 -0.478648,-0.21878 -0.732147,-0.317986 -0.864362,-0.36226 l 0.165727,-0.06585 c -2.362657,-0.878252 -3.824645,-1.08641 -3.824645,-1.08641 l 2.402122,-1.569219 c -0.01286,-0.01859 -0.02271,-0.03269 -0.03547,-0.05114 -0.34034,-0.491886 -0.679118,-0.981756 -0.946215,-1.363667 -2.626387,-3.755377 -4.16749,-5.34483 -5.411174,-5.83569 z m 7.64965,9.972001 -0.03162,0.01256 -0.112231,-0.04841 c 0,0 0.01857,-0.0061 0.14385,0.03584 z m 7.145447,3.480012 0.07997,0.117612 0.520624,0.278756 c -0.201502,-0.135348 -0.402102,-0.268029 -0.600596,-0.396368 z m 0.08189,0.120847 0.07256,0.106883 21.094767,32.010656 0.643025,-0.25569 2.6e-4,1.1e-4 0.160637,-0.0638 0.52857,0.62761 0.866661,1.29954 3.826092,-2.60567 1.249866,1.36695 C 65.825467,120.05368 59.619394,112.16919 55.28597,106.48309 51.420329,101.41079 47.424,97.928532 43.876321,95.544982 43.69936,95.450651 43.52286,95.356425 43.353736,95.266584 Z m 28.948244,33.138979 -4.031295,2.91107 3.384216,5.07438 4.287451,-2.74879 3.171412,3.76563 -4.78879,2.9867 3.50102,5.24974 0.71548,0.39743 3.294806,1.73187 -0.08138,0.0525 0.369816,0.20528 -4.646672,2.54688 -3.201897,2.06057 -0.04906,-0.27865 -0.126992,0.0696 -0.140241,-1.58312 -0.650657,-3.68697 -3.042918,-4.23392 -7.171948,4.47284 0.815803,1.16889 -0.259492,0.10311 0.05008,0.0731 -0.64224,0.38794 3.983508,6.38147 1.462396,-0.30163 c 0,0 0.04183,0.0806 0.04519,0.0872 l 0.06705,-0.0388 1.30274,1.99356 16.046155,-10.09672 2.801365,4.00567 -16.065145,10.34812 1.612568,2.4678 -0.548034,0.28612 c 0.239465,0.37084 0.484554,0.74623 0.73754,1.12761 3.713288,5.59791 12.191639,-0.46963 14.865004,-3.57936 2.673359,-3.10971 1.552405,-4.52579 0.550156,-8.68798 -0.59209,-2.45886 -8.776647,-13.30867 -17.616981,-24.71919 z m -8.210257,5.92921 -6.632566,4.78981 -0.979841,-1.20471 3.95408,5.66559 7.055618,-4.52363 z" />
    <path
       id="path5317"
       style="fill:#ffd66c;stroke:#ffffff;stroke-width:1.28;stroke-linecap:butt;stroke-linejoin:miter;stroke-miterlimit:4;stroke-dasharray:none;stroke-opacity:1"
       d="m 37.493833,92.154016 c 2.917759,1.272176 7.446829,3.664509 7.446829,3.664509 l -11.53772,-5.181697 c 0,0 0.173451,0.07469 2.67466,0.947916 0.390815,0.136442 0.875905,0.333684 1.416231,0.569272 z m 29.255604,36.504724 7.43274,11.83925 z m -4.618255,3.55836 8.377409,10.6021 0.09863,0.24822 z m -6.701229,4.09856 8.27568,11.79175 z m -0.767995,-0.12555 -4.890052,3.23544 z m 8.968875,12.09072 -5.460939,3.60598 z m 4.543895,7.09869 -6.874513,4.02413 -0.248224,0.0986 z m 1.658441,0.92099 3.504103,6.65022 -0.271907,-0.32266 z m 4.394295,7.44554 -6.55174,3.75197 z" />
  </g>
  <g
     inkscape:groupmode="layer"
     id="layer2"
     inkscape:label="Guitar"
     transform="translate(-16.92483,-18.011268)">
    <g
       id="g2536"
       transform="matrix(0.4816435,-0.18165606,0.18165606,0.4816435,42.708497,52.549647)"
       style="stroke-width:1.6225;stroke-miterlimit:4;stroke-dasharray:none">
      <path
         id="path7023"
         style="fill:#ff7585;fill-opacity:1;fill-rule:evenodd;stroke:#ffffff;stroke-width:1.6225;stroke-linecap:butt;stroke-linejoin:miter;stroke-miterlimit:4;stroke-dasharray:none;stroke-opacity:1"
         d="M 93.547915,248.00862 52.569179,231.82593 c 0,0 -9.396393,3.13216 -3.654156,8.61338 5.742237,5.48123 41.239761,16.18269 41.239761,16.18269 0,0 6.525283,-2.34911 3.393131,-8.61338 z m -10.701428,-72.56106 24.796033,9.65739 m -20.097836,-21.1419 25.057056,9.3964 m -20.358875,-21.40289 23.752005,9.65739 M 97.463097,140.21106 c 2.610113,1.56604 23.229993,9.39638 23.229993,9.39638 m -18.00976,-20.35888 21.92492,8.09134 m -17.48777,-20.09784 22.18597,8.61338 m -16.96573,-19.83684 21.14191,7.30831 m -15.66069,-18.792815 19.83685,7.830345 m -14.87762,-19.575829 19.31481,7.569307 m -14.87761,-18.792803 18.27077,6.786293 v 0 M 104.87642,187.85237 a 19.445328,20.228359 21.288209 0 1 -1.91345,23.75013 19.445328,20.228359 21.288209 0 1 -22.531863,5.88858 19.445328,20.228359 21.288209 0 1 -11.676564,-20.19846 19.445328,20.228359 21.288209 0 1 15.48918,-18.07121 M 142.25528,62.45054 76.937633,244.79239 v 0 l 0.03523,0.74843 M 147.86317,65.119196 82.589595,247.33803 v 0 l 0.03523,0.74793 M 145.54647,63.290513 80.042559,244.74058 v 0 l 0.03319,0.74551 M 139.14181,61.514999 74.322616,241.06834 v 0 l 0.03257,0.73773 M 134.82029,60.631188 62.037186,239.29396 v 0 M 137.33401,60.962605 67.182314,240.95579 v 0 l 0.01409,0.74716 M 153.43677,19.773962 142.74082,46.193814 c 0,0 -7.13236,4.299111 -3.81783,-5.034515 3.31451,-9.333627 9.05901,-22.796883 9.05901,-22.796883 0,0 3.98557,-3.57722 5.45477,1.411546 z m 14.3507,3.905945 -10.69595,26.419851 c 0,0 -7.13237,4.299096 -3.81786,-5.034514 3.31453,-9.333627 9.05901,-22.796883 9.05901,-22.796883 0,0 3.9856,-3.577236 5.4548,1.411546 z M 154.90576,10.492221 c -3.70935,-0.164863 -5.0286,2.663302 -5.0286,2.663302 0,0 -1.99872,-0.286217 -4.99545,-0.286217 -2.99677,0 -4.85119,6.991785 -4.85119,6.991785 0,0 -3.42574,-0.570054 -3.71113,-1.426279 -0.28534,-0.856193 -2.99683,-2.85489 -2.99683,-2.85489 0,0 -1.85439,1.285182 -2.7106,2.85489 -0.85622,1.569724 3.7111,2.42443 3.7111,2.42443 l 1.14009,-0.998151 3.42494,1.854375 -2.42444,5.709797 c 0,0 -2.7122,-1.143271 -4.13924,-3.141092 -1.42703,-1.997836 -1.71245,-0.998151 -1.71245,-0.998151 0,0 -1.99786,0.713562 -2.14058,2.996801 -0.14263,2.283208 2.7106,1.998666 2.7106,1.998666 l 1.99865,-0.572387 2.42678,1.570538 -1.28435,5.137394 -2.99679,-0.428143 -0.85624,-0.714298 -0.42808,-1.284353 -2.42681,-1.426263 -1.56818,0.856225 -0.71431,2.710615 2.85489,1.85674 1.71248,-0.856225 3.28064,2.282503 -0.99815,3.56684 0.99815,3.424914 3.13873,2.854922 -0.57002,4.851192 -5.42123,15.840278 -2.99683,-1.142426 -1.71248,6.137909 1.71248,0.428144 -1.42862,7.13368 -3.99499,-1.712465 -2.14054,5.137409 2.7106,1.284353 -1.42628,5.707417 -4.28115,-0.428144 -1.42628,4.995483 1.5682,0.998135 -0.62859,6.907366 -4.2825,-1.14006 -2.08068,6.07804 3.66214,2.01809 -3.66214,4.83175 -2.8549,-2.28249 -1.71247,7.4199 2.28485,1.14006 c 0,0 -1.71196,5.13735 -14.269735,3.42494 -12.55776,-1.71241 -22.262024,11.98723 -22.262024,11.98723 0,0 -5.708294,10.27577 -8.562339,18.26713 -2.854045,7.99131 -7.9923,22.83205 -7.9923,22.83205 0,0 -12.257687,11.51962 -20.819797,17.79848 -8.562115,6.27892 -14.909851,16.2825 -14.569553,34.71553 0.350243,18.97132 10.574568,31.69419 10.574568,31.69419 0,0 31.298168,16.90263 46.506799,20.81983 15.24461,3.92641 33.676901,-4.56504 33.676901,-4.56504 12.67458,-10.26712 18.17004,-14.08466 21.89144,-31.33181 0.69686,-13.98678 -3.38405,-29.42272 -1.62807,-43.30232 1.00345,-7.06996 11.55997,-26.97005 13.5578,-40.95481 1.99784,-13.98478 -14.84143,-25.82899 -17.12465,-28.39763 -2.28325,-2.56863 -0.28622,-7.13605 -0.28622,-7.13605 l 3.28299,2.14055 2.56871,-5.13738 -2.14059,-1.71246 1.5682,-6.42174 3.42492,0.85623 1.99866,-4.9931 -3.13873,-1.57056 2.1406,-6.70791 2.28248,0.71429 1.57054,-4.709277 -1.71246,-1.284353 1.71246,-6.135513 2.99682,0.99812 2.5687,-4.995483 -2.71299,-1.140047 1.71246,-6.563672 2.85491,0.428128 2.42678,-5.13741 -2.28485,-1.284352 2.99681,-8.562323 2.9968,-7.42223 2.42678,-2.996832 c 0,0 3.85392,0.142631 6.27983,0 2.42592,-0.142632 3.70877,-6.135545 3.70877,-6.135545 l 2.85489,0.85624 0.71193,1.142426 2.28486,1.996302 c 0,0 2.85254,-0.712811 2.85254,-3.994968 0,-3.282142 -4.85119,-0.71195 -4.85119,-0.71195 l -3.13873,-1.712464 2.42441,-4.995468 2.99682,0.998151 0.1442,1.000515 c 0,0 2.42524,1.853546 4.85119,0.283822 2.42592,-1.569724 -2.56871,-3.994952 -2.56871,-3.994952 l -1.57053,1.142426 -3.13876,-2.284868 1.57058,-4.851192 c 0,0 2.99602,0.713546 3.13871,1.284352 0.14263,0.570806 3.85306,2.996802 3.85306,2.996802 0,0 2.28332,-2.712213 2.56867,-3.711115 0.28534,-0.998919 -1.85436,-1.712465 -1.85436,-1.712465 l -1.85677,-0.428144 -1.71243,1.000516 -2.99683,-1.998666 c 0,0 0.28711,-2.569582 1.0005,-7.136045 0.71354,-4.566462 -4.28271,-1.853639 -4.4254,-3.708766 -0.14279,-1.855127 -1.56825,-5.707433 -1.56825,-5.707433 0,0 -3.567,-1.856003 -9.56049,-4.139243 -1.12375,-0.428096 -2.10767,-0.626606 -2.96367,-0.664651 z" />
    </g>
  </g>
</svg>
